<?xml version="1.0" encoding="UTF-8" standalone="no"?><!DOCTYPE svg PUBLIC "-//W3C//DTD SVG 1.1//EN" "http://www.w3.org/Graphics/SVG/1.1/DTD/svg11.dtd"><svg width="100%" height="100%" viewBox="0 0 168 48" version="1.1" xmlns="http://www.w3.org/2000/svg" xmlns:xlink="http://www.w3.org/1999/xlink" xml:space="preserve" xmlns:serif="http://www.serif.com/" style="fill-rule:evenodd;clip-rule:evenodd;stroke-linejoin:round;stroke-miterlimit:2;"><g id="DCP"><g id="g20"><path id="path22" d="M-0,47.117l-0,-3.276l42.23,-0.02l2.608,2.337l2.606,-2.337l16.481,0.02l-0.001,3.276l-63.924,0" style="fill:#cc173a;fill-rule:nonzero;"/><path id="path24" d="M35.479,32.508c-6.298,0 -11.42,-5.124 -11.42,-11.421c0,-6.297 5.122,-11.42 11.42,-11.42l7.999,0c-1.52,1.525 -2.521,3.408 -2.852,4.081l-5.146,-0.022c-4.06,0 -7.362,3.302 -7.362,7.361c-0,4.06 3.302,7.362 7.361,7.362l3.761,0l-0,4.059l-3.761,0" style="fill:#1f262f;fill-rule:nonzero;"/><path id="path26" d="M52.858,13.609c-3.315,-0 -6.012,2.697 -6.012,6.014l0,2.983c0,3.317 2.697,6.014 6.012,6.014l1.02,0c3.314,0 6.012,-2.697 6.012,-6.014l-0,-2.983c-0,-3.317 -2.698,-6.014 -6.012,-6.014l-1.02,-0Zm-9.998,28.337l0,-22.323c0,-5.515 4.486,-10 9.998,-10l1.02,-0c5.512,-0 9.998,4.485 9.998,10l0,2.983c0,5.513 -4.486,9.999 -9.998,9.999l-1.02,0c-1.898,0 -3.753,-0.545 -5.366,-1.577l-0.646,-0.412l0,11.33l-1.994,1.875l-1.992,-1.875" style="fill:#1f262f;fill-rule:nonzero;"/><path id="path28" d="M10.048,13.674c-3.317,-0 -6.014,2.697 -6.014,6.014l0,2.985c0,3.315 2.697,6.012 6.014,6.012l1.017,0c3.317,0 6.014,-2.697 6.014,-6.012l-0,-2.985c-0,-3.317 -2.697,-6.014 -6.014,-6.014l-1.017,-0Zm-0,18.998c-5.513,-0 -9.999,-4.486 -9.999,-9.999l0,-2.985c0,-5.513 4.486,-9.999 9.999,-9.999l1.017,0c1.9,0 3.755,0.545 5.368,1.577l0.646,0.413l-0,-11.092l3.985,0l-0,22.086c-0,5.513 -4.486,9.999 -9.999,9.999l-1.017,-0" style="fill:#1f262f;fill-rule:nonzero;"/><path id="path30" d="M84.586,14.064c0,-2.07 -1.25,-3.751 -3.626,-3.751l-1.556,0l0,7.501l1.556,0c2.376,0 3.626,-1.68 3.626,-3.75Zm1.25,-0c0,2.806 -1.792,4.862 -4.806,4.862l-2.792,-0l-0,-9.724l2.792,0c3.014,0 4.806,2.056 4.806,4.862" style="fill:#1f262f;fill-rule:nonzero;"/><path id="path32" d="M88.018,12.508l1.166,0l0,6.418l-1.166,-0l-0,-6.418Zm0.583,-2.848c0.431,0 0.792,0.361 0.792,0.792c-0,0.431 -0.361,0.792 -0.792,0.792c-0.43,-0 -0.792,-0.361 -0.792,-0.792c0,-0.431 0.362,-0.792 0.792,-0.792" style="fill:#1f262f;fill-rule:nonzero;"/><path id="path34" d="M92.116,16.995c-0,0 0.68,1.042 1.944,1.042c0.654,-0 1.39,-0.278 1.39,-0.792c-0,-0.556 -0.473,-0.834 -1.459,-1.028c-1.375,-0.278 -2.348,-0.82 -2.348,-2.028c0,-0.931 0.931,-1.848 2.362,-1.848c1.514,0 2.375,0.973 2.375,0.973l-0.764,0.791c0,0 -0.639,-0.708 -1.611,-0.708c-0.82,0 -1.222,0.403 -1.222,0.82c-0,0.486 0.5,0.75 1.555,0.972c1.223,0.264 2.265,0.722 2.265,2.028c-0,1.237 -1.306,1.875 -2.543,1.875c-1.806,0 -2.75,-1.347 -2.75,-1.347l0.806,-0.75" style="fill:#1f262f;fill-rule:nonzero;"/><path id="path36" d="M98.048,12.508l1.249,0l0,-1.959l1.168,0l-0,1.959l2,0l0,1.056l-2,-0l-0,3.459c-0,0.625 0.305,0.986 0.93,0.986c0.361,-0 0.736,-0.264 0.736,-0.264l0.431,0.958c-0.556,0.306 -0.958,0.389 -1.333,0.389c-0.917,0 -1.932,-0.597 -1.932,-2.014l0,-3.514l-1.249,-0l-0,-1.056" style="fill:#1f262f;fill-rule:nonzero;"/><path id="path38" d="M108.188,12.508l-0.43,1.056c-0,-0 -0.25,-0.139 -0.737,-0.139c-1.013,-0 -1.472,1.083 -1.472,1.083l0,4.418l-1.167,-0l0,-6.418l1.084,0l0,0.986c0,0 0.569,-1.153 1.792,-1.153c0.528,0 0.93,0.167 0.93,0.167" style="fill:#1f262f;fill-rule:nonzero;"/><path id="path40" d="M109.87,12.508l1.166,0l0,6.418l-1.166,-0l-0,-6.418Zm0.583,-2.848c0.43,0 0.792,0.361 0.792,0.792c-0,0.431 -0.362,0.792 -0.792,0.792c-0.431,-0 -0.792,-0.361 -0.792,-0.792c-0,-0.431 0.361,-0.792 0.792,-0.792" style="fill:#1f262f;fill-rule:nonzero;"/><path id="path42" d="M114.995,16.898c-0,-0 0.612,1.111 1.889,1.111c1.306,-0 2.126,-1.028 2.126,-2.292c-0,-1.264 -0.847,-2.292 -2.126,-2.292c-1.277,-0 -1.889,1.111 -1.889,1.111l-0,2.362Zm5.182,-1.181c-0,1.889 -1.376,3.375 -3.112,3.375c-1.542,0 -2.167,-1.097 -2.167,-1.097l0,0.931l-1.07,-0l0,-10.502l1.167,-0l-0,4.876c-0,-0 0.653,-0.959 2.07,-0.959c1.736,0 3.112,1.487 3.112,3.376" style="fill:#1f262f;fill-rule:nonzero;"/><path id="path44" d="M122.066,16.634l0,-4.126l1.168,0l-0,3.931c-0,1.098 0.68,1.57 1.541,1.57c1.084,-0 1.598,-1.056 1.598,-1.056l0,-4.445l1.167,0l-0,6.418l-1.084,-0l0,-0.987c0,0 -0.583,1.153 -1.972,1.153c-1.279,0 -2.418,-0.875 -2.418,-2.458" style="fill:#1f262f;fill-rule:nonzero;"/><path id="path46" d="M129.318,12.508l1.25,0l-0,-1.959l1.167,0l0,1.959l2,0l0,1.056l-2,-0l0,3.459c0,0.625 0.306,0.986 0.931,0.986c0.361,-0 0.736,-0.264 0.736,-0.264l0.431,0.958c-0.556,0.306 -0.959,0.389 -1.334,0.389c-0.917,0 -1.931,-0.597 -1.931,-2.014l-0,-3.514l-1.25,-0l0,-1.056" style="fill:#1f262f;fill-rule:nonzero;"/><path id="path48" d="M140.403,15.161c-0.041,-0.722 -0.694,-1.736 -1.986,-1.736c-1.389,-0 -1.959,1.07 -2.042,1.736l4.028,0Zm1.14,0.598c-0,0.125 -0,0.222 -0.014,0.375l-5.182,-0c0.07,0.972 1,1.875 2.209,1.875c1.264,-0 1.931,-0.945 1.931,-0.945l0.736,0.764c0,0 -0.972,1.264 -2.667,1.264c-1.945,0 -3.348,-1.472 -3.348,-3.375c-0,-1.875 1.278,-3.376 3.209,-3.376c1.792,0 3.126,1.348 3.126,3.418" style="fill:#1f262f;fill-rule:nonzero;"/><path id="path50" d="M148.169,14.536c0,0 -0.611,-1.111 -1.889,-1.111c-1.278,-0 -2.125,1.028 -2.125,2.292c-0,1.264 0.819,2.292 2.125,2.292c1.278,-0 1.889,-1.111 1.889,-1.111l0,-2.362Zm0,-1.236l0,-4.876l1.167,-0l0,10.502l-1.069,-0l-0,-0.931c-0,0 -0.626,1.097 -2.167,1.097c-1.737,0 -3.112,-1.486 -3.112,-3.375c-0,-1.889 1.375,-3.376 3.112,-3.376c1.416,0 2.069,0.959 2.069,0.959" style="fill:#1f262f;fill-rule:nonzero;"/><path id="path52" d="M85.392,25.362c-0,0 -0.903,-1.139 -2.681,-1.139c-2.112,-0 -3.556,1.847 -3.556,3.917c-0,2.07 1.444,3.918 3.556,3.918c1.764,-0 2.806,-1.292 2.806,-1.292l0.792,0.805c-0,0 -1.32,1.598 -3.598,1.598c-2.806,0 -4.807,-2.223 -4.807,-5.029c0,-2.806 2.001,-5.028 4.807,-5.028c2.278,-0 3.487,1.486 3.487,1.486l-0.806,0.764" style="fill:#1f262f;fill-rule:nonzero;"/><path id="path54" d="M93.033,29.793c-0,-1.264 -0.848,-2.292 -2.139,-2.292c-1.293,0 -2.14,1.028 -2.14,2.292c-0,1.264 0.847,2.292 2.14,2.292c1.291,0 2.139,-1.028 2.139,-2.292Zm1.167,0c-0,1.89 -1.417,3.376 -3.306,3.376c-1.89,0 -3.307,-1.486 -3.307,-3.376c0,-1.889 1.417,-3.375 3.307,-3.375c1.889,-0 3.306,1.486 3.306,3.375" style="fill:#1f262f;fill-rule:nonzero;"/><path id="path56" d="M95.659,29.057l3.708,0l0,1.111l-3.708,0l-0,-1.111" style="fill:#1f262f;fill-rule:nonzero;"/><path id="path58" d="M104.105,28.627c-1.418,-0.654 -2.668,-1.306 -2.668,-2.959c0,-1.14 0.945,-2.556 2.807,-2.556c1.833,-0 2.764,1.416 2.764,1.416l-0.875,0.709c-0,0 -0.681,-1.014 -1.889,-1.014c-1.07,-0 -1.64,0.75 -1.64,1.445c0,0.986 0.834,1.375 2.167,1.986c1.487,0.681 2.417,1.306 2.417,2.876c0,1.583 -1.305,2.639 -3.014,2.639c-2.306,0 -3.098,-2.028 -3.098,-2.028l0.973,-0.584c-0,0 0.583,1.501 2.125,1.501c0.931,-0 1.82,-0.528 1.82,-1.528c-0,-1.014 -0.806,-1.404 -1.889,-1.903" style="fill:#1f262f;fill-rule:nonzero;"/><path id="path60" d="M109.564,26.584l1.167,0l-0,6.418l-1.167,0l0,-6.418Zm0.584,-2.847c0.43,-0 0.792,0.361 0.792,0.791c-0,0.431 -0.362,0.792 -0.792,0.792c-0.431,0 -0.792,-0.361 -0.792,-0.792c-0,-0.43 0.361,-0.791 0.792,-0.791" style="fill:#1f262f;fill-rule:nonzero;"/><path id="path62" d="M122.275,28.877l0,4.125l-1.167,0l-0,-3.945c-0,-1.042 -0.542,-1.556 -1.375,-1.556c-0.959,0 -1.376,1.028 -1.376,1.028l0,4.473l-1.166,0l-0,-3.945c-0,-1.042 -0.542,-1.556 -1.376,-1.556c-0.944,0 -1.375,1.028 -1.375,1.028l0,4.473l-1.167,0l0,-6.418l1.084,0l-0,0.945c-0,0 0.472,-1.111 1.778,-1.111c1.597,-0 2,1.194 2,1.194c0,0 0.514,-1.194 1.917,-1.194c1.334,-0 2.223,0.875 2.223,2.459" style="fill:#1f262f;fill-rule:nonzero;"/><path id="path64" d="M124.609,30.71l0,-4.126l1.167,0l-0,3.932c-0,1.097 0.681,1.569 1.542,1.569c1.083,0 1.597,-1.056 1.597,-1.056l0,-4.445l1.167,0l0,6.418l-1.083,0l-0,-0.986c-0,0 -0.584,1.153 -1.973,1.153c-1.278,0 -2.417,-0.875 -2.417,-2.459" style="fill:#1f262f;fill-rule:nonzero;"/><path id="path66" d="M132.666,22.5l1.167,0l-0,10.502l-1.167,0l0,-10.502" style="fill:#1f262f;fill-rule:nonzero;"/><path id="path68" d="M140.584,31.169l0,-0.904c0,0 -0.639,-0.458 -1.68,-0.458c-1.001,0 -1.626,0.5 -1.626,1.167c0,0.834 0.75,1.167 1.473,1.167c1.139,0 1.833,-0.972 1.833,-0.972Zm1.167,-2.39l0,4.223l-1.069,0l-0,-0.93c-0,-0 -0.722,1.097 -2.181,1.097c-1.153,0 -2.389,-0.806 -2.389,-2.195c-0,-1.25 1.097,-2.139 2.541,-2.139c1.181,-0 1.931,0.528 1.931,0.528l0,-0.348c0,-1.333 -1.111,-1.514 -1.625,-1.514c-0.972,0 -1.917,0.542 -1.917,0.542l-0.486,-0.972c-0,-0 1,-0.653 2.403,-0.653c1.889,-0 2.792,1.167 2.792,2.361" style="fill:#1f262f;fill-rule:nonzero;"/><path id="path70" d="M143.53,26.584l1.25,0l-0,-1.958l1.167,-0l-0,1.958l2,0l0,1.056l-2,0l-0,3.459c-0,0.625 0.305,0.986 0.931,0.986c0.361,0 0.736,-0.264 0.736,-0.264l0.431,0.959c-0.556,0.306 -0.959,0.389 -1.334,0.389c-0.917,0 -1.931,-0.597 -1.931,-2.015l-0,-3.514l-1.25,0l-0,-1.056" style="fill:#1f262f;fill-rule:nonzero;"/><path id="path72" d="M150.073,26.584l1.167,0l-0,6.418l-1.167,0l-0,-6.418Zm0.583,-2.847c0.431,-0 0.792,0.361 0.792,0.791c-0,0.431 -0.361,0.792 -0.792,0.792c-0.43,0 -0.792,-0.361 -0.792,-0.792c0,-0.43 0.362,-0.791 0.792,-0.791" style="fill:#1f262f;fill-rule:nonzero;"/><path id="path74" d="M158.783,29.793c-0,-1.264 -0.848,-2.292 -2.14,-2.292c-1.292,0 -2.139,1.028 -2.139,2.292c-0,1.264 0.847,2.292 2.139,2.292c1.292,0 2.14,-1.028 2.14,-2.292Zm1.166,0c0,1.89 -1.417,3.376 -3.306,3.376c-1.889,0 -3.306,-1.486 -3.306,-3.376c-0,-1.889 1.417,-3.375 3.306,-3.375c1.889,-0 3.306,1.486 3.306,3.375" style="fill:#1f262f;fill-rule:nonzero;"/><path id="path76" d="M167.312,28.877l-0,4.125l-1.167,0l0,-3.931c0,-1.098 -0.68,-1.57 -1.542,-1.57c-1.041,0 -1.597,1.084 -1.597,1.084l0,4.417l-1.167,0l-0,-6.418l1.084,0l-0,0.904c-0,-0 0.583,-1.07 1.972,-1.07c1.278,-0 2.417,0.875 2.417,2.459" style="fill:#1f262f;fill-rule:nonzero;"/><path id="path78" d="M81.239,42.106c1.319,-0 2.222,-0.584 2.222,-1.82c0,-1.237 -0.903,-1.82 -2.222,-1.82l-1.279,-0l0,3.64l1.279,-0Zm-2.445,-4.752l2.514,0c2.028,0 3.32,1.07 3.32,2.932c0,1.861 -1.292,2.931 -3.32,2.931l-1.348,-0l0,3.862l-1.166,-0l-0,-9.725" style="fill:#1f262f;fill-rule:nonzero;"/><path id="path80" d="M90.24,40.66l-0.43,1.056c-0,0 -0.25,-0.139 -0.736,-0.139c-1.015,0 -1.473,1.084 -1.473,1.084l0,4.418l-1.167,-0l0,-6.419l1.084,0l-0,0.987c-0,-0 0.569,-1.153 1.792,-1.153c0.527,-0 0.93,0.166 0.93,0.166" style="fill:#1f262f;fill-rule:nonzero;"/><path id="path82" d="M96.492,43.87c0,-1.265 -0.847,-2.293 -2.139,-2.293c-1.292,0 -2.139,1.028 -2.139,2.293c-0,1.264 0.847,2.291 2.139,2.291c1.292,0 2.139,-1.027 2.139,-2.291Zm1.167,-0c-0,1.889 -1.417,3.375 -3.306,3.375c-1.89,0 -3.306,-1.486 -3.306,-3.375c-0,-1.89 1.416,-3.376 3.306,-3.376c1.889,-0 3.306,1.486 3.306,3.376" style="fill:#1f262f;fill-rule:nonzero;"/><path id="path84" d="M98.993,40.66l1.25,0l-0,-1.958l1.167,-0l-0,1.958l2,0l-0,1.056l-2,0l-0,3.459c-0,0.626 0.305,0.986 0.931,0.986c0.361,0 0.736,-0.263 0.736,-0.263l0.431,0.958c-0.556,0.306 -0.959,0.389 -1.334,0.389c-0.917,0 -1.931,-0.597 -1.931,-2.014l-0,-3.515l-1.25,0l-0,-1.056" style="fill:#1f262f;fill-rule:nonzero;"/><path id="path86" d="M110.328,43.87c0,-1.265 -0.847,-2.293 -2.139,-2.293c-1.292,0 -2.139,1.028 -2.139,2.293c-0,1.264 0.847,2.291 2.139,2.291c1.292,0 2.139,-1.027 2.139,-2.291Zm1.167,-0c0,1.889 -1.417,3.375 -3.306,3.375c-1.889,0 -3.306,-1.486 -3.306,-3.375c0,-1.89 1.417,-3.376 3.306,-3.376c1.889,-0 3.306,1.486 3.306,3.376" style="fill:#1f262f;fill-rule:nonzero;"/><path id="path88" d="M118.872,46.009c0,-0 -0.931,1.236 -2.626,1.236c-1.889,0 -3.306,-1.486 -3.306,-3.375c-0,-1.876 1.417,-3.376 3.306,-3.376c1.639,-0 2.556,1.153 2.556,1.153l-0.792,0.708c0,-0 -0.624,-0.778 -1.764,-0.778c-1.292,0 -2.139,1.028 -2.139,2.293c0,1.264 0.847,2.291 2.139,2.291c1.251,0 1.876,-0.916 1.876,-0.916l0.75,0.764" style="fill:#1f262f;fill-rule:nonzero;"/><path id="path90" d="M125.568,43.87c-0,-1.265 -0.848,-2.293 -2.139,-2.293c-1.292,0 -2.14,1.028 -2.14,2.293c-0,1.264 0.848,2.291 2.14,2.291c1.291,0 2.139,-1.027 2.139,-2.291Zm1.167,-0c-0,1.889 -1.417,3.375 -3.306,3.375c-1.89,0 -3.307,-1.486 -3.307,-3.375c0,-1.89 1.417,-3.376 3.307,-3.376c1.889,-0 3.306,1.486 3.306,3.376" style="fill:#1f262f;fill-rule:nonzero;"/><path id="path92" d="M128.875,36.576l1.166,0l-0,10.503l-1.166,-0l-0,-10.503" style="fill:#1f262f;fill-rule:nonzero;"/></g></g></svg>