<?xml version="1.0" encoding="UTF-8" standalone="no"?><!DOCTYPE svg PUBLIC "-//W3C//DTD SVG 1.1//EN" "http://www.w3.org/Graphics/SVG/1.1/DTD/svg11.dtd"><svg width="100%" height="100%" viewBox="0 0 140 50" version="1.1" xmlns="http://www.w3.org/2000/svg" xmlns:xlink="http://www.w3.org/1999/xlink" xml:space="preserve" xmlns:serif="http://www.serif.com/" style="fill-rule:evenodd;clip-rule:evenodd;stroke-linejoin:round;stroke-miterlimit:2;"><g id="FMI"><g id="FMI1" serif:id="FMI"><g><path d="M0.052,49.849l-0,-3.227l6.979,0.002l2.545,2.204l2.662,-2.204l50.067,-0l0,3.225l-62.253,-0Z" style="fill:#cc193a;fill-rule:nonzero;"/></g><g><g><path d="M48.094,35.578l0,-13.508c0,-2.391 -1.213,-4.118 -3.606,-5.132c-0.727,-0.169 -1.241,-0.241 -1.642,-0.241c-2.119,-0 -3.751,1.087 -4.852,3.229c-0.282,0.726 -0.416,1.593 -0.416,2.617l0.029,13.035l-3.98,0l-0.03,-13.777c-0,-2.467 -1.322,-5.104 -5.033,-5.104c-4.425,-0 -5.42,3.813 -5.42,5.147l0,13.734l-3.98,0l0.02,-13.409c0,-6.005 3.356,-9.449 9.208,-9.449c2.656,-0 4.986,1.057 6.929,3.141l0.302,0.325l0.299,-0.329c1.922,-2.119 4.306,-3.196 7.085,-3.196c8.963,-0 9.067,8.612 9.067,8.978l0,13.939l-3.98,0Z" style="fill:#1f262f;fill-rule:nonzero;"/></g><g><rect x="58.062" y="22.149" width="4.032" height="13.43" style="fill:#1f262f;"/></g><g><rect x="58.07" y="13.423" width="4.032" height="5.143" style="fill:#1f262f;"/></g><g><path d="M7.469,45.02l0,-28.322l-7.469,0l0.078,-3.978l7.391,-0l0,-2.612c0,-2.945 1.095,-5.471 3.25,-7.509c0.792,-0.601 1.678,-1.093 2.599,-1.437c1.06,-0.328 2.295,-0.501 3.65,-0.509l-0,3.981c-2.589,0.024 -4.262,0.978 -4.975,2.835c-0.361,0.949 -0.544,1.836 -0.544,2.639l-0,2.612l7.735,-0c-1.501,1.389 -2.332,3.271 -2.606,3.978l-5.129,0l-0,28.315l-2.068,1.66l-1.912,-1.653Z" style="fill:#1f262f;fill-rule:nonzero;"/></g><g><path d="M77.646,16.983l3.936,-0l-0,1.081l-3.936,0l0,4.312l-1.134,0l0,-9.462l5.34,0l0,1.081l-4.206,0l0,2.988Z" style="fill:#1f262f;fill-rule:nonzero;"/></g><g><path d="M83.879,20.146l0,-4.016l1.136,0l0,3.826c0,1.069 0.663,1.529 1.501,1.529c1.054,-0 1.554,-1.028 1.554,-1.028l0,-4.327l1.136,0l0,6.246l-1.055,0l-0,-0.959c-0,0 -0.568,1.122 -1.92,1.122c-1.243,-0 -2.352,-0.853 -2.352,-2.393" style="fill:#1f262f;fill-rule:nonzero;"/></g><g><path d="M115.129,33.853l-0,-4.016l1.136,-0l-0,3.826c-0,1.068 0.662,1.528 1.501,1.528c1.053,0 1.554,-1.028 1.554,-1.028l-0,-4.326l1.135,-0l0,6.246l-1.055,-0l0,-0.96c0,0 -0.568,1.122 -1.919,1.122c-1.244,-0 -2.352,-0.852 -2.352,-2.392" style="fill:#1f262f;fill-rule:nonzero;"/></g><g><path d="M96.804,18.362l-0,4.014l-1.136,0l-0,-3.826c-0,-1.068 -0.662,-1.527 -1.5,-1.527c-1.013,0 -1.556,1.054 -1.556,1.054l0,4.299l-1.134,0l-0,-6.246l1.054,0l0,0.879c0,0 0.568,-1.041 1.919,-1.041c1.244,-0 2.353,0.853 2.353,2.394" style="fill:#1f262f;fill-rule:nonzero;"/></g><g><path d="M104.415,21.335c0,0 -0.905,1.204 -2.555,1.204c-1.839,-0 -3.217,-1.447 -3.217,-3.286c-0,-1.824 1.378,-3.285 3.217,-3.285c1.595,-0 2.488,1.123 2.488,1.123l-0.771,0.688c-0,0 -0.608,-0.756 -1.717,-0.756c-1.256,0 -2.082,1.001 -2.082,2.23c0,1.231 0.826,2.232 2.082,2.232c1.217,-0 1.825,-0.893 1.825,-0.893l0.73,0.743Z" style="fill:#1f262f;fill-rule:nonzero;"/></g><g><path d="M105.524,16.13l1.216,0l0,-1.906l1.136,-0l0,1.906l1.947,0l-0,1.028l-1.947,0l0,3.366c0,0.609 0.298,0.959 0.906,0.959c0.352,0 0.717,-0.256 0.717,-0.256l0.419,0.934c-0.541,0.297 -0.933,0.378 -1.298,0.378c-0.892,-0 -1.88,-0.581 -1.88,-1.961l0,-3.42l-1.216,0l-0,-1.028Z" style="fill:#1f262f;fill-rule:nonzero;"/></g><g><path d="M111.892,16.13l1.136,0l-0,6.246l-1.136,0l-0,-6.246Zm0.568,-2.77c0.418,-0 0.77,0.351 0.77,0.77c0,0.419 -0.352,0.771 -0.77,0.771c-0.42,0 -0.771,-0.352 -0.771,-0.771c-0,-0.419 0.351,-0.77 0.771,-0.77" style="fill:#1f262f;fill-rule:nonzero;"/></g><g><path d="M120.368,19.253c-0,-1.229 -0.824,-2.23 -2.082,-2.23c-1.257,0 -2.082,1.001 -2.082,2.23c-0,1.231 0.825,2.232 2.082,2.232c1.258,-0 2.082,-1.001 2.082,-2.232m1.135,0c0,1.839 -1.379,3.286 -3.217,3.286c-1.838,-0 -3.217,-1.447 -3.217,-3.286c0,-1.839 1.379,-3.285 3.217,-3.285c1.838,-0 3.217,1.446 3.217,3.285" style="fill:#1f262f;fill-rule:nonzero;"/></g><g><path d="M128.669,18.362l0,4.014l-1.136,0l0,-3.826c0,-1.068 -0.662,-1.527 -1.501,-1.527c-1.013,0 -1.554,1.054 -1.554,1.054l0,4.299l-1.135,0l-0,-6.246l1.055,0l-0,0.879c-0,0 0.566,-1.041 1.919,-1.041c1.244,-0 2.352,0.853 2.352,2.394" style="fill:#1f262f;fill-rule:nonzero;"/></g><g><path d="M134.996,20.592l-0,-0.879c-0,0 -0.622,-0.445 -1.635,-0.445c-0.973,-0 -1.582,0.486 -1.582,1.134c0,0.811 0.729,1.136 1.432,1.136c1.109,-0 1.785,-0.946 1.785,-0.946m1.136,-2.325l-0,4.109l-1.041,0l-0,-0.906c-0,0 -0.704,1.069 -2.123,1.069c-1.121,-0 -2.325,-0.784 -2.325,-2.137c0,-1.216 1.069,-2.082 2.475,-2.082c1.149,0 1.878,0.515 1.878,0.515l-0,-0.338c-0,-1.298 -1.082,-1.474 -1.582,-1.474c-0.946,0 -1.865,0.526 -1.865,0.526l-0.473,-0.946c0,0 0.974,-0.635 2.338,-0.635c1.839,-0 2.718,1.136 2.718,2.299" style="fill:#1f262f;fill-rule:nonzero;"/></g><g><rect x="138.646" y="12.156" width="1.136" height="10.22" style="fill:#1f262f;"/></g><g><path d="M77.646,26.612l3.259,5.287l3.245,-5.287l1.095,-0l0,9.463l-1.136,0l0,-7.409l-3.23,5.26l-3.233,-5.245l0,7.394l-1.134,0l0,-9.463l1.134,-0Z" style="fill:#1f262f;fill-rule:nonzero;"/></g><g><path d="M92.627,32.953c-0,-1.231 -0.825,-2.232 -2.082,-2.232c-1.258,-0 -2.082,1.001 -2.082,2.232c0,1.23 0.824,2.23 2.082,2.23c1.257,-0 2.082,-1 2.082,-2.23m1.136,-0c-0,1.837 -1.381,3.285 -3.218,3.285c-1.839,-0 -3.218,-1.448 -3.218,-3.285c0,-1.839 1.379,-3.286 3.218,-3.286c1.837,0 3.218,1.447 3.218,3.286" style="fill:#1f262f;fill-rule:nonzero;"/></g><g><path d="M100.942,35.034c-0,0 -0.906,1.204 -2.555,1.204c-1.839,-0 -3.218,-1.447 -3.218,-3.285c0,-1.825 1.379,-3.286 3.218,-3.286c1.594,0 2.487,1.123 2.487,1.123l-0.771,0.689c0,-0 -0.608,-0.758 -1.716,-0.758c-1.258,-0 -2.082,1.001 -2.082,2.232c-0,1.23 0.824,2.23 2.082,2.23c1.216,-0 1.824,-0.892 1.824,-0.892l0.731,0.743Z" style="fill:#1f262f;fill-rule:nonzero;"/></g><g><path d="M103.97,33.046l-0,3.029l-1.136,0l-0,-10.221l1.136,0l-0,6.746l2.675,-2.77l1.488,-0l-2.92,2.947l3.163,3.298l-1.581,0l-2.825,-3.029Z" style="fill:#1f262f;fill-rule:nonzero;"/></g><g><rect x="109.391" y="32.237" width="3.609" height="1.081" style="fill:#1f262f;"/></g><g><path d="M123.743,34.128c0,0 0.596,1.069 1.839,1.069c1.27,-0 2.068,-1 2.068,-2.23c-0,-1.231 -0.798,-2.232 -2.068,-2.232c-1.243,-0 -1.839,1.068 -1.839,1.068l0,2.325Zm-0.094,-4.284l-0,0.905c-0,0 0.622,-1.068 2.109,-1.068c1.689,0 3.028,1.447 3.028,3.286c-0,1.838 -1.339,3.285 -3.028,3.285c-1.149,-0 -1.799,-0.65 -2.015,-0.933l0,3.879l-1.135,0l-0,-9.354l1.041,-0Z" style="fill:#1f262f;fill-rule:nonzero;"/></g><g><rect x="76.701" y="40.311" width="1.136" height="9.462" style="fill:#1f262f;"/></g><g><path d="M85.866,45.759l0,4.014l-1.136,0l0,-3.824c0,-1.069 -0.661,-1.529 -1.499,-1.529c-1.014,0 -1.556,1.056 -1.556,1.056l0,4.297l-1.134,0l-0,-6.246l1.054,0l-0,0.88c-0,0 0.568,-1.04 1.919,-1.04c1.244,-0 2.352,0.85 2.352,2.392" style="fill:#1f262f;fill-rule:nonzero;"/></g><g><path d="M87.597,43.527l1.217,0l-0,-1.904l1.136,-0l-0,1.904l1.946,0l0,1.028l-1.946,0l-0,3.368c-0,0.608 0.297,0.959 0.906,0.959c0.35,-0 0.715,-0.258 0.715,-0.258l0.42,0.934c-0.542,0.297 -0.933,0.378 -1.298,0.378c-0.893,-0 -1.879,-0.581 -1.879,-1.96l-0,-3.421l-1.217,0l0,-1.028Z" style="fill:#1f262f;fill-rule:nonzero;"/></g><g><path d="M98.385,46.11c-0.04,-0.702 -0.676,-1.69 -1.932,-1.69c-1.353,0 -1.907,1.041 -1.987,1.69l3.919,-0Zm1.109,0.582c-0,0.121 -0,0.216 -0.013,0.365l-5.043,0c0.068,0.947 0.974,1.825 2.15,1.825c1.229,-0 1.879,-0.92 1.879,-0.92l0.716,0.745c0,-0 -0.946,1.229 -2.595,1.229c-1.893,-0 -3.258,-1.432 -3.258,-3.284c-0,-1.826 1.243,-3.285 3.123,-3.285c1.744,-0 3.041,1.311 3.041,3.325" style="fill:#1f262f;fill-rule:nonzero;"/></g><g><path d="M105.036,43.527l-0.418,1.028c-0,0 -0.243,-0.135 -0.716,-0.135c-0.988,0 -1.433,1.054 -1.433,1.054l-0,4.301l-1.136,-0l-0,-6.248l1.055,0l0,0.961c0,0 0.554,-1.121 1.743,-1.121c0.514,-0 0.905,0.16 0.905,0.16" style="fill:#1f262f;fill-rule:nonzero;"/></g><g><path d="M105.876,43.527l1.297,0l0,-2.148c0,-1.325 1.028,-1.987 1.92,-1.987c0.365,0 0.77,0.067 1.311,0.364l-0.419,0.933c0,0 -0.378,-0.243 -0.73,-0.243c-0.608,0 -0.946,0.391 -0.946,1.001l-0,2.08l1.623,0l0,1.028l-1.623,0l-0,5.22l-1.136,-0l0,-5.22l-1.297,0l-0,-1.028Z" style="fill:#1f262f;fill-rule:nonzero;"/></g><g><path d="M115.596,47.989l-0,-0.878c-0,-0 -0.622,-0.446 -1.637,-0.446c-0.973,-0 -1.581,0.487 -1.581,1.136c-0,0.811 0.73,1.134 1.433,1.134c1.109,0 1.785,-0.946 1.785,-0.946m1.136,-2.325l-0,4.111l-1.042,-0l0,-0.906c0,-0 -0.703,1.067 -2.122,1.067c-1.123,-0 -2.325,-0.784 -2.325,-2.135c0,-1.217 1.067,-2.082 2.473,-2.082c1.149,-0 1.88,0.513 1.88,0.513l-0,-0.338c-0,-1.298 -1.082,-1.474 -1.582,-1.474c-0.946,0 -1.866,0.528 -1.866,0.528l-0.473,-0.946c-0,-0 0.973,-0.635 2.339,-0.635c1.839,-0 2.718,1.134 2.718,2.297" style="fill:#1f262f;fill-rule:nonzero;"/></g><g><path d="M124.343,48.732c-0,0 -0.906,1.204 -2.555,1.204c-1.839,-0 -3.218,-1.447 -3.218,-3.284c0,-1.826 1.379,-3.285 3.218,-3.285c1.595,-0 2.488,1.121 2.488,1.121l-0.771,0.69c-0,0 -0.608,-0.758 -1.717,-0.758c-1.258,0 -2.082,1.001 -2.082,2.232c0,1.229 0.824,2.23 2.082,2.23c1.217,-0 1.825,-0.893 1.825,-0.893l0.73,0.743Z" style="fill:#1f262f;fill-rule:nonzero;"/></g><g><path d="M130.616,46.11c-0.04,-0.702 -0.676,-1.69 -1.934,-1.69c-1.351,0 -1.906,1.041 -1.987,1.69l3.921,-0Zm1.109,0.582c-0,0.121 -0,0.216 -0.015,0.365l-5.042,0c0.067,0.947 0.973,1.825 2.15,1.825c1.23,-0 1.879,-0.92 1.879,-0.92l0.716,0.745c-0,-0 -0.946,1.229 -2.595,1.229c-1.893,-0 -3.259,-1.432 -3.259,-3.284c0,-1.826 1.244,-3.285 3.123,-3.285c1.745,-0 3.043,1.311 3.043,3.325" style="fill:#1f262f;fill-rule:nonzero;"/></g></g></g></g></svg>