<?xml version="1.0" encoding="UTF-8" standalone="no"?><!DOCTYPE svg PUBLIC "-//W3C//DTD SVG 1.1//EN" "http://www.w3.org/Graphics/SVG/1.1/DTD/svg11.dtd"><svg width="100%" height="100%" viewBox="0 0 230 110" version="1.1" xmlns="http://www.w3.org/2000/svg" xmlns:xlink="http://www.w3.org/1999/xlink" xml:space="preserve" xmlns:serif="http://www.serif.com/" style="fill-rule:evenodd;clip-rule:evenodd;stroke-linejoin:round;stroke-miterlimit:2;"><g id="Modelica-Libraries"><path d="M123.683,90.881l2.161,0l-0,15.937l8.071,-0l-0,2.057l-10.232,0l0,-17.994Z" style="fill:#1f262f;fill-rule:nonzero;"/><g><path d="M137.951,96.997l2.159,0l-0,11.878l-2.159,0l0,-11.878Zm1.08,-5.266c0.797,0 1.464,0.668 1.464,1.464c-0,0.797 -0.667,1.465 -1.464,1.465c-0.797,-0 -1.465,-0.668 -1.465,-1.465c0,-0.796 0.668,-1.464 1.465,-1.464" style="fill:#1f262f;fill-rule:nonzero;"/></g><g><path d="M148.207,105.121c-0,-0 1.129,2.056 3.496,2.056c2.417,-0 3.931,-1.901 3.931,-4.241c0,-2.34 -1.567,-4.24 -3.931,-4.24c-2.367,0 -3.496,2.056 -3.496,2.056l-0,4.369Zm9.588,-2.185c0,3.496 -2.546,6.248 -5.76,6.248c-2.852,-0 -4.008,-2.031 -4.008,-2.031l0,1.722l-1.978,0l-0,-19.434l2.158,0l-0,9.023c-0,0 1.208,-1.773 3.828,-1.773c3.214,-0 5.76,2.75 5.76,6.245" style="fill:#1f262f;fill-rule:nonzero;"/></g><g><path d="M169.105,97l-0.796,1.952c0,0 -0.464,-0.256 -1.362,-0.256c-1.878,0 -2.725,2.005 -2.725,2.005l0,8.174l-2.161,0l0,-11.875l2.006,-0l-0,1.823c-0,0 1.055,-2.132 3.316,-2.132c0.976,-0 1.722,0.309 1.722,0.309" style="fill:#1f262f;fill-rule:nonzero;"/></g><g><path d="M180.005,105.482l-0,-1.672c-0,0 -1.182,-0.847 -3.111,-0.847c-1.849,-0 -3.008,0.924 -3.008,2.158c0,1.544 1.388,2.161 2.726,2.161c2.108,-0 3.393,-1.8 3.393,-1.8m2.158,-4.422l0,7.815l-1.979,0l0,-1.722c0,-0 -1.337,2.031 -4.036,2.031c-2.132,-0 -4.42,-1.493 -4.42,-4.063c0,-2.314 2.029,-3.958 4.704,-3.958c2.185,0 3.573,0.977 3.573,0.977l-0,-0.642c-0,-2.469 -2.056,-2.802 -3.008,-2.802c-1.799,0 -3.546,1.003 -3.546,1.003l-0.9,-1.8c-0,0 1.85,-1.208 4.446,-1.208c3.496,-0 5.166,2.159 5.166,4.369" style="fill:#1f262f;fill-rule:nonzero;"/></g><g><path d="M194.297,97l-0.797,1.952c0,0 -0.464,-0.256 -1.361,-0.256c-1.878,0 -2.726,2.005 -2.726,2.005l0,8.174l-2.161,0l0,-11.875l2.006,-0l-0,1.823c-0,0 1.055,-2.132 3.316,-2.132c0.977,-0 1.723,0.309 1.723,0.309" style="fill:#1f262f;fill-rule:nonzero;"/></g><g><path d="M198.178,96.997l2.158,0l0,11.878l-2.158,0l-0,-11.878Zm1.079,-5.266c0.797,0 1.465,0.668 1.465,1.464c-0,0.797 -0.668,1.465 -1.465,1.465c-0.797,-0 -1.464,-0.668 -1.464,-1.465c-0,-0.796 0.667,-1.464 1.464,-1.464" style="fill:#1f262f;fill-rule:nonzero;"/></g><g><path d="M214.602,101.907c-0.076,-1.335 -1.285,-3.211 -3.675,-3.211c-2.57,0 -3.623,1.979 -3.778,3.211l7.453,0Zm2.108,1.106c0,0.232 0,0.412 -0.024,0.694l-9.588,0c0.127,1.799 1.85,3.472 4.087,3.472c2.338,0 3.573,-1.749 3.573,-1.749l1.361,1.414c-0,-0 -1.799,2.34 -4.934,2.34c-3.598,-0 -6.195,-2.725 -6.195,-6.248c0,-3.469 2.364,-6.245 5.937,-6.245c3.316,-0 5.783,2.494 5.783,6.322" style="fill:#1f262f;fill-rule:nonzero;"/></g><g><path d="M221.697,105.3c-0,0 1.26,1.929 3.599,1.929c1.208,0 2.572,-0.514 2.572,-1.464c-0,-1.029 -0.874,-1.544 -2.699,-1.903c-2.546,-0.514 -4.346,-1.517 -4.346,-3.754c0,-1.72 1.723,-3.417 4.37,-3.417c2.801,-0 4.395,1.8 4.395,1.8l-1.414,1.464c-0,0 -1.18,-1.311 -2.981,-1.311c-1.515,-0 -2.261,0.746 -2.261,1.517c-0,0.899 0.925,1.387 2.878,1.799c2.261,0.488 4.19,1.338 4.19,3.752c0,2.287 -2.417,3.472 -4.704,3.472c-3.341,-0 -5.09,-2.493 -5.09,-2.493l1.491,-1.391Z" style="fill:#1f262f;fill-rule:nonzero;"/></g><g><path d="M159.293,41.937c-0,-3.458 2.802,-6.262 6.262,-6.262c3.457,-0 6.262,2.804 6.262,6.262c-0,3.457 -2.805,6.262 -6.262,6.262c-3.46,-0 -6.262,-2.805 -6.262,-6.262" style="fill:#cc173a;fill-rule:nonzero;"/></g><g><path d="M39.084,87.29l-19.128,21.583l16.742,-0l11.574,-14.158c-3.646,-1.682 -6.79,-4.248 -9.188,-7.425m137.841,-87.074c-7.815,0.285 -16.584,8.77 -16.584,8.674c0.096,-4.862 -3.527,-9.533 -10.201,-8.485c-6.671,1.051 -15.06,9.437 -15.153,9.437c0.285,-3.527 -2.055,-7.671 -5.722,-9.054c-5.233,-1.977 -12.994,-0.505 -23.035,10.612c-7.899,8.744 -27.96,31.618 -35.516,40.19c2.676,1.586 5.015,3.665 6.903,6.127l24.005,-29.668c-0,0 13.911,-18.24 21.544,-20.018c6.318,-1.469 7.301,4.57 4.956,10.201c-4.771,11.449 -16.491,30.5 -16.491,30.5c-0,0 16.395,-21.255 19.159,-24.782c2.766,-3.526 16.587,-20.875 22.689,-14.775c5.943,5.946 -11.917,31.647 -11.917,31.647l9.15,-11.82c0,-0 18.59,-24.402 26.692,-21.351c8.102,3.051 -5.245,25.354 -5.245,25.26c-0,0 7.994,-6.094 12.296,-19.161c1.97,-5.975 0.288,-13.821 -7.53,-13.534" style="fill:#707a84;fill-rule:nonzero;"/></g><g><path d="M0.002,60.835c0,-5.254 4.233,-9.691 10.557,-9.691c3.317,0 6.121,1.226 7.957,3.111c1.888,-1.885 4.642,-3.111 7.956,-3.111c6.376,0 10.406,4.437 10.406,9.691l-0.005,23.079l-5.815,-0l0.005,-22.213c0,-3.62 -1.835,-5.608 -4.692,-5.608c-2.807,-0 -4.998,1.988 -4.998,5.608l-0.003,22.213l-5.864,-0l0.001,-22.213c0,-3.62 -2.194,-5.608 -5.048,-5.608c-2.807,-0 -4.642,1.988 -4.642,5.608l-0.003,22.213l-5.814,-0l0.002,-23.079Z" style="fill:#1f262f;fill-rule:nonzero;"/></g><g><path d="M90.988,78.736c3.317,-0 5.968,-2.651 5.968,-5.968c-0,-3.314 -2.651,-5.967 -5.968,-5.967c-3.314,-0 -5.965,2.653 -5.965,5.967c0,3.317 2.651,5.968 5.965,5.968m5.917,-27.032l5.865,0l0,20.861c0,6.477 -5.254,11.779 -11.782,11.779c-6.477,0 -11.729,-5.302 -11.729,-11.779c-0,-6.528 4.948,-11.783 11.322,-11.783c2.754,0 4.999,1.276 6.324,2.398l0,-11.476Z" style="fill:#1f262f;fill-rule:nonzero;"/></g><g><path d="M64.424,72.641c-0,-3.393 -2.293,-6.281 -6.007,-6.281c-3.713,0 -6.003,2.888 -6.003,6.281c-0,3.391 2.29,6.282 6.003,6.282c3.714,-0 6.007,-2.891 6.007,-6.282m5.594,0c0,6.372 -5.135,11.414 -11.601,11.414c-6.463,0 -11.597,-5.042 -11.597,-11.414c-0,-6.417 5.134,-11.416 11.597,-11.416c6.466,0 11.601,4.999 11.601,11.416" style="fill:#1f262f;fill-rule:nonzero;"/></g><g><path d="M128.32,70.624c-0.093,-1.878 -1.835,-4.4 -5.458,-4.4c-3.528,-0 -5.132,2.474 -5.314,4.4l10.772,0Zm5.502,1.926c-0,0.412 -0,1.235 -0.046,2.063l-16.228,-0c0.409,1.924 2.656,4.4 6.095,4.4c3.804,0 5.96,-2.201 5.96,-2.201l2.749,4.128c0,-0 -3.438,3.115 -8.709,3.115c-6.6,0 -11.689,-5.042 -11.689,-11.414c0,-6.372 4.63,-11.416 10.908,-11.416c5.961,0 10.96,4.631 10.96,11.325" style="fill:#1f262f;fill-rule:nonzero;"/></g><g><rect x="144.611" y="51.704" width="5.721" height="32.209" style="fill:#1f262f;"/></g><g><path d="M194.871,76.264l3.623,3.666c-0,-0 -3.118,4.125 -8.985,4.125c-6.508,0 -11.689,-5.042 -11.689,-11.414c0,-6.417 5.181,-11.416 11.689,-11.416c5.824,0 8.894,4.037 8.894,4.037l-3.804,3.39c-0,0 -1.788,-2.292 -5.09,-2.292c-3.713,0 -6.097,2.888 -6.097,6.281c0,3.391 2.384,6.282 6.097,6.282c3.714,-0 5.362,-2.659 5.362,-2.659" style="fill:#1f262f;fill-rule:nonzero;"/></g><g><rect x="162.557" y="61.244" width="5.767" height="22.669" style="fill:#1f262f;"/></g><g><path d="M218.222,78.923c-3.713,-0 -6.003,-2.891 -6.003,-6.282c-0,-3.393 2.29,-6.281 6.003,-6.281c3.714,0 6.007,2.888 6.007,6.281c-0,3.391 -2.293,6.282 -6.007,6.282m6.007,-17.679l-0,1.603c-1.747,-1.023 -3.796,-1.622 -6.007,-1.622c-6.465,0 -11.598,4.999 -11.598,11.416c0,6.372 5.133,11.414 11.598,11.414c2.211,0 4.26,-0.601 6.007,-1.632l-0,1.505l5.769,0l-0,-22.684l-5.769,0Z" style="fill:#1f262f;fill-rule:nonzero;"/></g></g></svg>