<?xml version="1.0" encoding="UTF-8" standalone="no"?><!DOCTYPE svg PUBLIC "-//W3C//DTD SVG 1.1//EN" "http://www.w3.org/Graphics/SVG/1.1/DTD/svg11.dtd"><svg width="100%" height="100%" viewBox="0 0 230 168" version="1.1" xmlns="http://www.w3.org/2000/svg" xmlns:xlink="http://www.w3.org/1999/xlink" xml:space="preserve" xmlns:serif="http://www.serif.com/" style="fill-rule:evenodd;clip-rule:evenodd;stroke-linejoin:round;stroke-miterlimit:2;"><g id="DCP-bare"><path id="path22" d="M0.342,167.303l-0,-11.769l151.717,-0.072l9.368,8.396l9.362,-8.396l59.211,0.072l-0.005,11.769l-229.653,0" style="fill:#cc173a;fill-rule:nonzero;"/><path id="path24" d="M127.803,114.819c-22.624,0 -41.026,-18.407 -41.026,-41.031c-0,-22.624 18.402,-41.028 41.026,-41.028l28.737,0c-5.459,5.48 -9.055,12.244 -10.245,14.661l-18.486,-0.078c-14.588,-0 -26.45,11.862 -26.45,26.445c-0,14.586 11.862,26.45 26.444,26.45l13.512,-0l-0,14.581l-13.512,0" style="fill:#fff;fill-rule:nonzero;"/><path id="path26" d="M190.241,46.921c-11.909,0 -21.598,9.691 -21.598,21.606l-0,10.719c-0,11.914 9.689,21.605 21.598,21.605l3.662,-0c11.909,-0 21.598,-9.691 21.598,-21.605l0,-10.719c0,-11.915 -9.689,-21.606 -21.598,-21.606l-3.662,0Zm-35.92,101.804l0,-80.198c0,-19.812 16.115,-35.927 35.92,-35.927l3.662,0c19.805,0 35.921,16.115 35.921,35.927l0,10.719c0,19.806 -16.116,35.921 -35.921,35.921l-3.662,0c-6.82,0 -13.484,-1.96 -19.28,-5.665l-2.318,-1.482l-0,40.705l-7.164,6.737l-7.158,-6.737" style="fill:#fff;fill-rule:nonzero;"/><path id="path28" d="M36.44,47.155c-11.915,0 -21.605,9.69 -21.605,21.606l-0,10.723c-0,11.911 9.69,21.601 21.605,21.601l3.654,-0c11.915,-0 21.605,-9.69 21.605,-21.601l0,-10.723c0,-11.916 -9.69,-21.606 -21.605,-21.606l-3.654,0Zm-0,68.251c-19.807,0 -35.922,-16.115 -35.922,-35.922l-0,-10.723c-0,-19.807 16.115,-35.922 35.922,-35.922l3.654,0c6.826,0 13.491,1.96 19.287,5.667l2.318,1.481l0,-39.847l14.317,0l0,79.344c0,19.807 -16.116,35.922 -35.922,35.922l-3.654,0" style="fill:#fff;fill-rule:nonzero;"/></g></svg>