<?xml version="1.0" encoding="UTF-8" standalone="no"?><!DOCTYPE svg PUBLIC "-//W3C//DTD SVG 1.1//EN" "http://www.w3.org/Graphics/SVG/1.1/DTD/svg11.dtd"><svg width="100%" height="100%" viewBox="0 0 86 51" version="1.1" xmlns="http://www.w3.org/2000/svg" xmlns:xlink="http://www.w3.org/1999/xlink" xml:space="preserve" xmlns:serif="http://www.serif.com/" style="fill-rule:evenodd;clip-rule:evenodd;stroke-linejoin:round;stroke-miterlimit:2;"><g id="eFMI-bare"><g><path d="M0.589,50.258l0,-3.279l28.334,0.001l2.586,2.239l2.705,-2.239l50.868,0l0,3.278l-84.493,0Z" style="fill:#c8102e;fill-rule:nonzero;"/></g><g><path d="M70.852,35.797l0,-13.725c0,-2.43 -1.232,-4.184 -3.663,-5.214c-0.739,-0.173 -1.261,-0.244 -1.668,-0.244c-2.153,-0 -3.811,1.103 -4.93,3.28c-0.288,0.737 -0.423,1.618 -0.423,2.658l0.03,13.245l-4.044,-0l-0.031,-13.998c-0,-2.507 -1.342,-5.185 -5.112,-5.185c-4.497,-0 -5.509,3.872 -5.509,5.229l0,13.954l-4.043,-0l0.022,-13.624c-0,-6.102 3.409,-9.601 9.354,-9.601c2.698,-0 5.066,1.074 7.039,3.192l0.308,0.33l0.303,-0.335c1.953,-2.153 4.375,-3.246 7.199,-3.246c9.107,-0 9.211,8.749 9.211,9.121l0,14.163l-4.043,-0Z" style="fill:#fff;fill-rule:nonzero;"/></g><g><rect x="80.98" y="22.152" width="4.096" height="13.645" style="fill:#fff;"/></g><g><rect x="80.987" y="13.287" width="4.096" height="5.225" style="fill:#fff;"/></g><g><path d="M33.644,12.58l-0,-2.657c-0,-0.817 0.184,-1.719 0.551,-2.685c0.726,-1.889 2.428,-2.859 5.061,-2.883l0,-4.05c-1.378,0.008 -2.634,0.185 -3.712,0.517c-0.938,0.351 -1.839,0.852 -2.644,1.462c-2.193,2.073 -3.306,4.643 -3.306,7.639l-0,2.657l-0.768,0l0,-0.002l-7.869,0c1.528,1.414 2.374,3.328 2.654,4.047l1.436,-0l-0,0.002l4.547,0l-0,28.812l1.945,1.682l2.105,-1.69l-0,-28.804l5.215,0c0.28,-0.719 1.126,-2.633 2.653,-4.047l-7.868,0Z" style="fill:#fff;fill-rule:nonzero;"/></g><g><path d="M10.409,16.538l0.947,0c3.109,0 5.694,2.268 6.202,5.235l-13.351,0c0.508,-2.967 3.093,-5.235 6.202,-5.235m0.947,-4.109l-0.947,-0c-5.739,-0 -10.409,4.669 -10.409,10.409l0,2.43c0,5.739 4.67,10.409 10.409,10.409l0.947,0c4.055,0 7.573,-2.332 9.291,-5.725l-5.095,0c-1.115,1.001 -2.584,1.615 -4.196,1.615l-0.947,-0c-3.265,-0 -5.957,-2.499 -6.268,-5.684l17.605,-0.013c0.012,-0.2 0.019,-0.4 0.019,-0.602l0,-2.43c0,-5.74 -4.67,-10.409 -10.409,-10.409" style="fill:#c8102e;fill-rule:nonzero;"/></g></g></svg>