<?xml version="1.0" encoding="UTF-8" standalone="no"?><!DOCTYPE svg PUBLIC "-//W3C//DTD SVG 1.1//EN" "http://www.w3.org/Graphics/SVG/1.1/DTD/svg11.dtd"><svg width="100%" height="100%" viewBox="0 0 380 134" version="1.1" xmlns="http://www.w3.org/2000/svg" xmlns:xlink="http://www.w3.org/1999/xlink" xml:space="preserve" xmlns:serif="http://www.serif.com/" style="fill-rule:evenodd;clip-rule:evenodd;stroke-linejoin:round;stroke-miterlimit:2;"><g id="FMI"><g id="FMI1" serif:id="FMI"><g><path d="M0.14,133.658l0,-8.766l18.961,0.004l6.914,5.988l7.234,-5.988l136.024,-0l0,8.762l-169.133,-0Z" style="fill:#cc193a;fill-rule:nonzero;"/></g><g><g><path d="M130.664,94.887l-0,-36.699c-0,-6.497 -3.297,-11.188 -9.797,-13.942c-1.976,-0.461 -3.371,-0.656 -4.461,-0.656c-5.758,0 -10.191,2.953 -13.183,8.773c-0.766,1.973 -1.129,4.328 -1.129,7.11l0.078,35.414l-10.813,0l-0.082,-37.43c-0,-6.703 -3.59,-13.867 -13.672,-13.867c-12.023,0 -14.726,10.359 -14.726,13.984l-0,37.313l-10.813,0l0.055,-36.43c-0,-16.316 9.117,-25.672 25.016,-25.672c7.215,0 13.547,2.871 18.824,8.535l0.82,0.883l0.813,-0.894c5.222,-5.758 11.699,-8.684 19.25,-8.684c24.351,0 24.633,23.398 24.633,24.391l-0,37.871l-10.813,0Z" style="fill:#fff;fill-rule:nonzero;"/></g><g><rect x="157.746" y="58.402" width="10.953" height="36.488" style="fill:#fff;"/></g><g><rect x="157.766" y="34.695" width="10.953" height="13.973" style="fill:#fff;"/></g><g><path d="M20.293,120.539l-0,-76.945l-20.293,0l0.211,-10.809l20.082,0l-0,-7.097c-0,-8 2.973,-14.864 8.828,-20.399c2.152,-1.633 4.559,-2.969 7.063,-3.906c2.878,-0.891 6.234,-1.36 9.914,-1.383l-0,10.816c-7.032,0.067 -11.578,2.657 -13.516,7.704c-0.98,2.578 -1.477,4.988 -1.477,7.168l-0,7.097l21.016,0c-4.078,3.774 -6.336,8.887 -7.082,10.809l-13.934,0l-0,76.926l-5.617,4.511l-5.195,-4.492Z" style="fill:#fff;fill-rule:nonzero;"/></g><g><path d="M210.953,44.367l10.692,0l-0,2.938l-10.692,0l-0,11.715l-3.082,0l-0,-25.707l14.508,0l-0,2.937l-11.426,0l-0,8.117Z" style="fill:#fff;fill-rule:nonzero;"/></g><g><path d="M227.887,52.961l-0,-10.91l3.086,0l-0,10.394c-0,2.903 1.8,4.153 4.078,4.153c2.863,0 4.222,-2.793 4.222,-2.793l-0,-11.754l3.086,0l-0,16.969l-2.867,0l-0,-2.606c-0,0 -1.543,3.047 -5.215,3.047c-3.379,0 -6.39,-2.316 -6.39,-6.5" style="fill:#fff;fill-rule:nonzero;"/></g><g><path d="M312.786,90.199l0,-10.91l3.086,0l0,10.394c0,2.903 1.8,4.153 4.078,4.153c2.863,0 4.222,-2.793 4.222,-2.793l0,-11.754l3.086,0l0,16.969l-2.867,0l0,-2.606c0,0 -1.543,3.047 -5.215,3.047c-3.379,0 -6.39,-2.316 -6.39,-6.5" style="fill:#fff;fill-rule:nonzero;"/></g><g><path d="M263,48.113l-0,10.907l-3.086,0l-0,-10.395c-0,-2.902 -1.797,-4.148 -4.074,-4.148c-2.754,0 -4.227,2.863 -4.227,2.863l-0,11.68l-3.082,0l-0,-16.969l2.864,0l-0,2.387c-0,0 1.542,-2.829 5.214,-2.829c3.379,0 6.391,2.317 6.391,6.504" style="fill:#fff;fill-rule:nonzero;"/></g><g><path d="M283.68,56.191c-0,0 -2.461,3.27 -6.942,3.27c-4.996,0 -8.742,-3.93 -8.742,-8.926c-0,-4.957 3.746,-8.926 8.742,-8.926c4.332,0 6.758,3.051 6.758,3.051l-2.094,1.871c-0,0 -1.652,-2.054 -4.664,-2.054c-3.414,0 -5.656,2.718 -5.656,6.058c-0,3.344 2.242,6.063 5.656,6.063c3.305,0 4.957,-2.426 4.957,-2.426l1.985,2.019Z" style="fill:#fff;fill-rule:nonzero;"/></g><g><path d="M286.691,42.051l3.305,0l-0,-5.18l3.086,0l-0,5.18l5.289,0l-0,2.793l-5.289,0l-0,9.144c-0,1.653 0.809,2.606 2.461,2.606c0.957,0 1.949,-0.696 1.949,-0.696l1.137,2.536c-1.469,0.808 -2.535,1.027 -3.527,1.027c-2.422,0 -5.106,-1.578 -5.106,-5.328l-0,-9.289l-3.305,0l-0,-2.793Z" style="fill:#fff;fill-rule:nonzero;"/></g><g><path d="M303.992,42.051l3.086,0l-0,16.969l-3.086,0l-0,-16.969Zm1.543,-7.528c1.137,0 2.094,0.954 2.094,2.094c-0,1.137 -0.957,2.094 -2.094,2.094c-1.14,0 -2.094,-0.957 -2.094,-2.094c-0,-1.14 0.954,-2.094 2.094,-2.094" style="fill:#fff;fill-rule:nonzero;"/></g><g><path d="M327.02,50.535c-0,-3.34 -2.239,-6.058 -5.657,-6.058c-3.414,0 -5.656,2.718 -5.656,6.058c-0,3.344 2.242,6.063 5.656,6.063c3.418,0 5.657,-2.719 5.657,-6.063m3.085,0c-0,4.996 -3.746,8.926 -8.742,8.926c-4.992,0 -8.738,-3.93 -8.738,-8.926c-0,-4.996 3.746,-8.926 8.738,-8.926c4.996,0 8.742,3.93 8.742,8.926" style="fill:#fff;fill-rule:nonzero;"/></g><g><path d="M349.574,48.113l-0,10.907l-3.086,0l-0,-10.395c-0,-2.902 -1.801,-4.148 -4.078,-4.148c-2.754,0 -4.223,2.863 -4.223,2.863l-0,11.68l-3.085,0l-0,-16.969l2.867,0l-0,2.387c-0,0 1.539,-2.829 5.215,-2.829c3.378,0 6.39,2.317 6.39,6.504" style="fill:#fff;fill-rule:nonzero;"/></g><g><path d="M366.762,54.172l-0,-2.387c-0,0 -1.688,-1.211 -4.442,-1.211c-2.644,0 -4.297,1.321 -4.297,3.082c-0,2.203 1.981,3.086 3.891,3.086c3.012,0 4.848,-2.57 4.848,-2.57m3.086,-6.317l-0,11.165l-2.828,0l-0,-2.461c-0,0 -1.911,2.902 -5.766,2.902c-3.047,0 -6.317,-2.129 -6.317,-5.805c-0,-3.304 2.903,-5.656 6.723,-5.656c3.121,0 5.102,1.398 5.102,1.398l-0,-0.918c-0,-3.527 -2.938,-4.003 -4.297,-4.003c-2.57,0 -5.067,1.429 -5.067,1.429l-1.285,-2.57c-0,0 2.645,-1.727 6.352,-1.727c4.996,0 7.383,3.086 7.383,6.246" style="fill:#fff;fill-rule:nonzero;"/></g><g><rect x="376.68" y="31.254" width="3.086" height="27.766" style="fill:#fff;"/></g><g><path d="M210.953,70.527l8.852,14.364l8.816,-14.364l2.977,0l-0,25.711l-3.086,0l-0,-20.129l-8.778,14.289l-8.781,-14.25l-0,20.09l-3.082,0l-0,-25.711l3.082,0Z" style="fill:#fff;fill-rule:nonzero;"/></g><g><path d="M251.652,87.754c-0,-3.344 -2.242,-6.063 -5.656,-6.063c-3.418,0 -5.656,2.719 -5.656,6.063c-0,3.344 2.238,6.059 5.656,6.059c3.414,0 5.656,-2.715 5.656,-6.059m3.086,0c-0,4.992 -3.75,8.926 -8.742,8.926c-4.996,0 -8.742,-3.934 -8.742,-8.926c-0,-4.996 3.746,-8.926 8.742,-8.926c4.992,0 8.742,3.93 8.742,8.926" style="fill:#fff;fill-rule:nonzero;"/></g><g><path d="M274.242,93.41c-0,0 -2.461,3.27 -6.941,3.27c-4.996,0 -8.742,-3.93 -8.742,-8.926c-0,-4.957 3.746,-8.926 8.742,-8.926c4.332,0 6.758,3.051 6.758,3.051l-2.094,1.871c-0,0 -1.653,-2.059 -4.664,-2.059c-3.418,0 -5.656,2.719 -5.656,6.063c-0,3.344 2.238,6.059 5.656,6.059c3.304,0 4.957,-2.422 4.957,-2.422l1.984,2.019Z" style="fill:#fff;fill-rule:nonzero;"/></g><g><path d="M282.469,88.008l-0,8.23l-3.086,0l-0,-27.769l3.086,0l-0,18.328l7.269,-7.527l4.043,0l-7.933,8.007l8.593,8.961l-4.296,0l-7.676,-8.23Z" style="fill:#fff;fill-rule:nonzero;"/></g><g><rect x="297.199" y="85.809" width="9.805" height="2.938" style="fill:#fff;"/></g><g><path d="M336.191,90.948c0,0 1.617,2.903 4.996,2.903c3.449,0 5.617,-2.715 5.617,-6.059c0,-3.344 -2.168,-6.063 -5.617,-6.063c-3.379,0 -4.996,2.903 -4.996,2.903l0,6.316Zm-0.258,-11.64l0,2.46c0,0 1.691,-2.902 5.73,-2.902c4.59,0 8.227,3.93 8.227,8.926c0,4.996 -3.637,8.926 -8.227,8.926c-3.121,0 -4.886,-1.766 -5.472,-2.535l0,10.539l-3.086,0l0,-25.414l2.828,0Z" style="fill:#fff;fill-rule:nonzero;"/></g><g><rect x="208.383" y="107.746" width="3.086" height="25.707" style="fill:#fff;"/></g><g><path d="M233.285,122.547l-0,10.906l-3.086,0l-0,-10.39c-0,-2.903 -1.797,-4.153 -4.074,-4.153c-2.754,0 -4.227,2.867 -4.227,2.867l-0,11.676l-3.082,0l-0,-16.969l2.864,0l-0,2.391c-0,0 1.543,-2.828 5.215,-2.828c3.378,0 6.39,2.312 6.39,6.5" style="fill:#fff;fill-rule:nonzero;"/></g><g><path d="M237.988,116.484l3.305,0l-0,-5.175l3.086,0l-0,5.175l5.289,0l-0,2.793l-5.289,0l-0,9.149c-0,1.652 0.808,2.605 2.461,2.605c0.953,0 1.945,-0.699 1.945,-0.699l1.141,2.535c-1.473,0.809 -2.535,1.028 -3.528,1.028c-2.425,0 -5.105,-1.579 -5.105,-5.325l-0,-9.293l-3.305,0l-0,-2.793Z" style="fill:#fff;fill-rule:nonzero;"/></g><g><path d="M267.297,123.5c-0.11,-1.906 -1.836,-4.59 -5.25,-4.59c-3.676,0 -5.18,2.828 -5.399,4.59l10.649,0Zm3.012,1.582c-0,0.328 -0,0.586 -0.036,0.992l-13.699,0c0.184,2.571 2.645,4.957 5.84,4.957c3.34,0 5.106,-2.5 5.106,-2.5l1.945,2.024c-0,0 -2.57,3.34 -7.051,3.34c-5.144,0 -8.852,-3.891 -8.852,-8.922c-0,-4.961 3.379,-8.926 8.485,-8.926c4.738,0 8.262,3.562 8.262,9.035" style="fill:#fff;fill-rule:nonzero;"/></g><g><path d="M285.367,116.484l-1.137,2.793c-0,0 -0.66,-0.367 -1.945,-0.367c-2.683,0 -3.894,2.863 -3.894,2.863l-0,11.684l-3.086,0l-0,-16.973l2.867,0l-0,2.61c-0,0 1.504,-3.047 4.734,-3.047c1.399,0 2.461,0.437 2.461,0.437" style="fill:#fff;fill-rule:nonzero;"/></g><g><path d="M287.648,116.484l3.524,0l-0,-5.836c-0,-3.601 2.793,-5.398 5.215,-5.398c0.992,0 2.093,0.18 3.562,0.988l-1.137,2.535c-0,0 -1.027,-0.66 -1.984,-0.66c-1.652,0 -2.57,1.063 -2.57,2.719l-0,5.652l4.41,0l-0,2.793l-4.41,0l-0,14.18l-3.086,0l-0,-14.18l-3.524,0l-0,-2.793Z" style="fill:#fff;fill-rule:nonzero;"/></g><g><path d="M314.055,128.605l-0,-2.386c-0,0 -1.688,-1.211 -4.446,-1.211c-2.644,0 -4.297,1.324 -4.297,3.086c-0,2.203 1.985,3.082 3.895,3.082c3.012,0 4.848,-2.571 4.848,-2.571m3.086,-6.316l-0,11.168l-2.829,0l-0,-2.461c-0,0 -1.91,2.899 -5.765,2.899c-3.051,0 -6.317,-2.129 -6.317,-5.801c-0,-3.305 2.899,-5.656 6.719,-5.656c3.121,0 5.106,1.394 5.106,1.394l-0,-0.918c-0,-3.527 -2.938,-4.004 -4.297,-4.004c-2.571,0 -5.071,1.434 -5.071,1.434l-1.285,-2.571c-0,0 2.645,-1.726 6.356,-1.726c4.996,0 7.383,3.082 7.383,6.242" style="fill:#fff;fill-rule:nonzero;"/></g><g><path d="M337.82,130.625c-0,0 -2.461,3.27 -6.941,3.27c-4.996,0 -8.742,-3.93 -8.742,-8.922c-0,-4.961 3.746,-8.926 8.742,-8.926c4.332,0 6.758,3.047 6.758,3.047l-2.094,1.875c-0,0 -1.652,-2.059 -4.664,-2.059c-3.418,0 -5.656,2.719 -5.656,6.063c-0,3.34 2.238,6.058 5.656,6.058c3.305,0 4.957,-2.426 4.957,-2.426l1.984,2.02Z" style="fill:#fff;fill-rule:nonzero;"/></g><g><path d="M354.863,123.5c-0.109,-1.906 -1.836,-4.59 -5.254,-4.59c-3.672,0 -5.179,2.828 -5.398,4.59l10.652,0Zm3.012,1.582c-0,0.328 -0,0.586 -0.039,0.992l-13.699,0c0.183,2.571 2.644,4.957 5.84,4.957c3.343,0 5.105,-2.5 5.105,-2.5l1.945,2.024c-0,0 -2.57,3.34 -7.05,3.34c-5.141,0 -8.852,-3.891 -8.852,-8.922c-0,-4.961 3.379,-8.926 8.484,-8.926c4.739,0 8.266,3.562 8.266,9.035" style="fill:#fff;fill-rule:nonzero;"/></g></g></g></g></svg>