<?xml version="1.0" encoding="UTF-8" standalone="no"?><!DOCTYPE svg PUBLIC "-//W3C//DTD SVG 1.1//EN" "http://www.w3.org/Graphics/SVG/1.1/DTD/svg11.dtd"><svg width="100%" height="100%" viewBox="0 0 228 108" version="1.1" xmlns="http://www.w3.org/2000/svg" xmlns:xlink="http://www.w3.org/1999/xlink" xml:space="preserve" xmlns:serif="http://www.serif.com/" style="fill-rule:evenodd;clip-rule:evenodd;stroke-linejoin:round;stroke-miterlimit:2;"><g id="Modelica"><g id="g282"><path id="path284" d="M157.91,41.594c-0,-3.428 2.779,-6.207 6.207,-6.207c3.429,-0 6.208,2.779 6.208,6.207c0,3.428 -2.779,6.208 -6.208,6.208c-3.428,0 -6.207,-2.78 -6.207,-6.208" style="fill:#cc173a;fill-rule:nonzero;"/><path id="path286" d="M38.745,86.553l-18.962,21.397l16.596,0l11.475,-14.036c-3.615,-1.667 -6.733,-4.21 -9.109,-7.361Zm136.646,-86.318c-7.749,0.283 -16.442,8.693 -16.442,8.598c0.094,-4.819 -3.496,-9.448 -10.112,-8.409c-6.613,1.039 -14.929,9.354 -15.023,9.354c0.283,-3.496 -2.036,-7.605 -5.67,-8.976c-5.188,-1.958 -12.883,-0.501 -22.836,10.52c-7.829,8.669 -27.716,31.344 -35.206,39.842c2.651,1.571 4.971,3.633 6.84,6.073l23.799,-29.41c0,-0 13.79,-18.082 21.356,-19.844c6.262,-1.458 7.238,4.53 4.913,10.111c-4.73,11.352 -16.348,30.238 -16.348,30.238c0,-0 16.254,-21.072 18.993,-24.568c2.741,-3.496 16.443,-20.694 22.49,-14.647c5.894,5.893 -11.811,31.372 -11.811,31.372l9.071,-11.718c0,0 18.426,-24.189 26.458,-21.165c8.033,3.023 -5.198,25.134 -5.198,25.04c0,0 7.924,-6.039 12.191,-18.993c1.951,-5.924 0.283,-13.702 -7.465,-13.418" style="fill:#707a84;fill-rule:nonzero;"/><path id="path288" d="M0.003,60.328c-0,-5.208 4.196,-9.606 10.465,-9.606c3.287,-0 6.067,1.213 7.887,3.083c1.871,-1.87 4.601,-3.083 7.887,-3.083c6.321,-0 10.315,4.398 10.315,9.606l-0.003,22.879l-5.765,-0l0.003,-22.019c0,-3.59 -1.819,-5.562 -4.65,-5.562c-2.782,0 -4.956,1.972 -4.956,5.562l-0.002,22.019l-5.814,-0l0.003,-22.019c-0,-3.59 -2.174,-5.562 -5.005,-5.562c-2.782,0 -4.602,1.972 -4.602,5.562l-0.003,22.019l-5.763,-0l0.003,-22.879" style="fill:#fff;fill-rule:nonzero;"/><path id="path290" d="M90.198,78.073c3.287,0 5.916,-2.627 5.916,-5.915c0,-3.286 -2.629,-5.915 -5.916,-5.915c-3.285,-0 -5.914,2.629 -5.914,5.915c0,3.288 2.629,5.915 5.914,5.915Zm5.866,-26.795l5.815,-0l-0,20.678c-0,6.42 -5.209,11.678 -11.681,11.678c-6.42,-0 -11.628,-5.258 -11.628,-11.678c0,-6.471 4.905,-11.679 11.224,-11.679c2.731,-0 4.956,1.264 6.27,2.377l0,-11.376" style="fill:#fff;fill-rule:nonzero;"/><path id="path292" d="M63.865,72.032c0,-3.363 -2.273,-6.227 -5.954,-6.227c-3.681,0 -5.952,2.864 -5.952,6.227c-0,3.362 2.271,6.226 5.952,6.226c3.681,0 5.954,-2.864 5.954,-6.226Zm5.545,-0c-0,6.317 -5.091,11.316 -11.499,11.316c-6.408,-0 -11.497,-4.999 -11.497,-11.316c-0,-6.362 5.089,-11.315 11.497,-11.315c6.408,-0 11.499,4.953 11.499,11.315" style="fill:#fff;fill-rule:nonzero;"/><path id="path294" d="M127.207,70.033c-0.093,-1.863 -1.819,-4.363 -5.409,-4.363c-3.5,0 -5.09,2.453 -5.271,4.363l10.68,0Zm5.452,1.908c0,0.409 0,1.226 -0.045,2.045l-16.087,0c0.407,1.908 2.634,4.363 6.043,4.363c3.772,-0 5.908,-2.183 5.908,-2.183l2.726,4.091c0,0 -3.408,3.091 -8.634,3.091c-6.543,-0 -11.588,-4.999 -11.588,-11.316c0,-6.317 4.591,-11.315 10.816,-11.315c5.907,-0 10.861,4.588 10.861,11.224" style="fill:#fff;fill-rule:nonzero;"/><path id="path296" d="M143.356,51.278l5.672,-0l-0,31.929l-5.672,-0l-0,-31.929" style="fill:#fff;fill-rule:nonzero;"/><path id="path298" d="M193.182,75.622l3.59,3.636c-0,0 -3.091,4.09 -8.907,4.09c-6.453,-0 -11.588,-4.999 -11.588,-11.316c-0,-6.362 5.135,-11.315 11.588,-11.315c5.772,-0 8.816,3.999 8.816,3.999l-3.773,3.363c0,-0 -1.77,-2.274 -5.043,-2.274c-3.682,0 -6.044,2.864 -6.044,6.227c0,3.362 2.362,6.226 6.044,6.226c3.68,0 5.317,-2.636 5.317,-2.636" style="fill:#fff;fill-rule:nonzero;"/><path id="path300" d="M161.145,60.734l5.718,0l0,22.473l-5.718,-0l-0,-22.473" style="fill:#fff;fill-rule:nonzero;"/><path id="path302" d="M216.328,78.258c-3.681,0 -5.952,-2.864 -5.952,-6.226c0,-3.363 2.271,-6.227 5.952,-6.227c3.681,0 5.954,2.864 5.954,6.227c0,3.362 -2.273,6.226 -5.954,6.226Zm5.954,-17.524l0,1.59c-1.732,-1.017 -3.762,-1.607 -5.954,-1.607c-6.408,-0 -11.497,4.953 -11.497,11.315c0,6.317 5.089,11.316 11.497,11.316c2.192,-0 4.222,-0.597 5.954,-1.618l0,1.491l5.718,0l0,-22.487l-5.718,0" style="fill:#fff;fill-rule:nonzero;"/></g></g></svg>