<?xml version="1.0" encoding="UTF-8" standalone="no"?><!DOCTYPE svg PUBLIC "-//W3C//DTD SVG 1.1//EN" "http://www.w3.org/Graphics/SVG/1.1/DTD/svg11.dtd"><svg width="100%" height="100%" viewBox="0 0 203 39" version="1.1" xmlns="http://www.w3.org/2000/svg" xmlns:xlink="http://www.w3.org/1999/xlink" xml:space="preserve" xmlns:serif="http://www.serif.com/" style="fill-rule:evenodd;clip-rule:evenodd;stroke-linejoin:round;stroke-miterlimit:2;"><g id="SSP"><g id="g192"><path id="path194" d="M-0,38.169l-0,-3.301l42.523,-0.021l2.627,2.355l2.627,-2.355l16.643,0.021l-0.002,3.301l-64.418,0" style="fill:#cc193a;fill-rule:nonzero;"/><path id="path196" d="M0.669,23.645l0,-4.107l11.54,-0c1.486,-0 2.695,-1.208 2.695,-2.693c-0,-1.486 -1.209,-2.695 -2.695,-2.695l-5.358,-0c-3.751,-0 -6.801,-3.051 -6.801,-6.801c-0,-3.751 3.05,-6.803 6.801,-6.803l13.451,-0.027c-1.669,1.646 -2.448,3.434 -2.708,4.135l-10.743,0c-1.486,0 -2.694,1.209 -2.694,2.695c0,1.486 1.208,2.695 2.694,2.695l5.358,-0.002c3.751,0 6.803,3.052 6.803,6.803c-0,3.75 -3.052,6.8 -6.803,6.8l-11.54,0" style="fill:#fff;fill-rule:nonzero;"/><path id="path198" d="M20.035,23.645c0.743,-0.927 1.95,-2.604 2.3,-4.107l11.611,-0c1.486,-0 2.694,-1.208 2.694,-2.693c-0,-1.486 -1.208,-2.695 -2.694,-2.695l-5.358,-0c-3.751,-0 -6.803,-3.051 -6.803,-6.801c0,-3.751 3.052,-6.803 6.803,-6.803l15.194,-0.027c-0.807,0.818 -2.014,2.258 -2.728,4.135l-12.466,0c-1.486,0 -2.695,1.209 -2.695,2.695c-0,1.486 1.209,2.695 2.695,2.695l5.358,-0.002c3.751,0 6.802,3.052 6.802,6.803c-0,3.75 -3.051,6.8 -6.802,6.8l-13.911,0" style="fill:#fff;fill-rule:nonzero;"/><path id="path200" d="M53.267,4.533c-3.34,0 -6.058,2.718 -6.058,6.06l-0,3.007c-0,3.342 2.718,6.06 6.058,6.06l1.027,0c3.341,0 6.059,-2.718 6.059,-6.06l-0,-3.007c-0,-3.342 -2.718,-6.06 -6.059,-6.06l-1.027,0Zm-10.076,28.556l0,-22.496c0,-5.557 4.521,-10.077 10.076,-10.077l1.027,-0c5.556,-0 10.076,4.52 10.076,10.077l-0,3.007c-0,5.556 -4.52,10.076 -10.076,10.076l-1.027,0c-1.913,0 -3.782,-0.55 -5.408,-1.589l-0.65,-0.416l-0,11.418l-2.01,1.89l-2.008,-1.89" style="fill:#fff;fill-rule:nonzero;"/><path id="path202" d="M81.89,19.608c-1.428,-0.657 -2.688,-1.316 -2.688,-2.981c-0,-1.148 0.952,-2.576 2.828,-2.576c1.847,0 2.785,1.428 2.785,1.428l-0.882,0.714c0,-0 -0.686,-1.022 -1.903,-1.022c-1.078,-0 -1.652,0.756 -1.652,1.456c-0,0.993 0.84,1.385 2.183,2.002c1.498,0.685 2.436,1.315 2.436,2.897c-0,1.596 -1.316,2.66 -3.037,2.66c-2.324,-0 -3.122,-2.044 -3.122,-2.044l0.98,-0.588c-0,0 0.588,1.512 2.142,1.512c0.937,-0 1.833,-0.532 1.833,-1.54c0,-1.022 -0.812,-1.414 -1.903,-1.918" style="fill:#fff;fill-rule:nonzero;"/><path id="path204" d="M87.167,25.978c0,-0 0.406,0.335 0.77,0.335c0.518,0 0.756,-0.364 1.008,-0.994l0.504,-1.273l-3.024,-6.495l1.33,-0l2.268,5.109l1.932,-5.109l1.274,-0c-0,-0 -3.248,8.175 -3.402,8.552c-0.378,0.938 -1.106,1.302 -1.792,1.302c-0.797,0 -1.371,-0.462 -1.371,-0.462l0.503,-0.965" style="fill:#fff;fill-rule:nonzero;"/><path id="path206" d="M95.133,22.072c-0,0 0.686,1.05 1.96,1.05c0.658,-0 1.399,-0.28 1.399,-0.798c0,-0.56 -0.476,-0.84 -1.469,-1.036c-1.386,-0.28 -2.366,-0.826 -2.366,-2.044c0,-0.937 0.938,-1.861 2.38,-1.861c1.526,-0 2.393,0.979 2.393,0.979l-0.77,0.798c0,0 -0.644,-0.713 -1.623,-0.713c-0.826,-0 -1.232,0.405 -1.232,0.825c-0,0.49 0.504,0.756 1.567,0.98c1.232,0.266 2.282,0.728 2.282,2.044c0,1.246 -1.316,1.89 -2.561,1.89c-1.82,-0 -2.772,-1.358 -2.772,-1.358l0.812,-0.756" style="fill:#fff;fill-rule:nonzero;"/><path id="path208" d="M101.11,17.551l1.261,-0l-0,-1.974l1.175,-0l0,1.974l2.016,-0l0,1.063l-2.016,0l0,3.486c0,0.63 0.308,0.994 0.938,0.994c0.364,-0 0.742,-0.266 0.742,-0.266l0.434,0.966c-0.56,0.308 -0.966,0.392 -1.344,0.392c-0.924,-0 -1.945,-0.602 -1.945,-2.03l-0,-3.542l-1.261,0l0,-1.063" style="fill:#fff;fill-rule:nonzero;"/><path id="path210" d="M112.282,20.224c-0.042,-0.728 -0.7,-1.75 -2.002,-1.75c-1.4,0 -1.974,1.078 -2.058,1.75l4.06,0Zm1.148,0.602c-0,0.126 -0,0.224 -0.015,0.378l-5.221,-0c0.07,0.98 1.008,1.89 2.226,1.89c1.274,-0 1.946,-0.952 1.946,-0.952l0.742,0.77c-0,-0 -0.98,1.274 -2.688,1.274c-1.96,-0 -3.374,-1.484 -3.374,-3.402c0,-1.89 1.288,-3.401 3.234,-3.401c1.806,-0 3.15,1.358 3.15,3.443" style="fill:#fff;fill-rule:nonzero;"/><path id="path212" d="M124.405,19.86l-0,4.158l-1.176,-0l-0,-3.976c-0,-1.05 -0.546,-1.568 -1.386,-1.568c-0.966,0 -1.386,1.036 -1.386,1.036l0,4.508l-1.176,-0l0,-3.976c0,-1.05 -0.545,-1.568 -1.386,-1.568c-0.951,0 -1.385,1.036 -1.385,1.036l-0,4.508l-1.176,-0l0,-6.467l1.092,-0l-0,0.951c-0,0 0.476,-1.119 1.791,-1.119c1.61,-0 2.016,1.203 2.016,1.203c0,0 0.518,-1.203 1.932,-1.203c1.344,-0 2.24,0.881 2.24,2.477" style="fill:#fff;fill-rule:nonzero;"/><path id="path214" d="M134.093,19.608c-1.428,-0.657 -2.688,-1.316 -2.688,-2.981c0,-1.148 0.952,-2.576 2.828,-2.576c1.847,0 2.785,1.428 2.785,1.428l-0.882,0.714c0,-0 -0.685,-1.022 -1.903,-1.022c-1.078,-0 -1.653,0.756 -1.653,1.456c0,0.993 0.841,1.385 2.184,2.002c1.498,0.685 2.436,1.315 2.436,2.897c-0,1.596 -1.316,2.66 -3.038,2.66c-2.323,-0 -3.121,-2.044 -3.121,-2.044l0.98,-0.588c-0,0 0.587,1.512 2.141,1.512c0.938,-0 1.834,-0.532 1.834,-1.54c0,-1.022 -0.812,-1.414 -1.903,-1.918" style="fill:#fff;fill-rule:nonzero;"/><path id="path216" d="M138.825,17.551l1.26,-0l-0,-1.974l1.175,-0l0,1.974l2.016,-0l0,1.063l-2.016,0l0,3.486c0,0.63 0.308,0.994 0.939,0.994c0.364,-0 0.741,-0.266 0.741,-0.266l0.434,0.966c-0.56,0.308 -0.966,0.392 -1.343,0.392c-0.925,-0 -1.946,-0.602 -1.946,-2.03l-0,-3.542l-1.26,0l-0,-1.063" style="fill:#fff;fill-rule:nonzero;"/><path id="path218" d="M149.044,17.551l-0.434,1.063c0,0 -0.252,-0.14 -0.742,-0.14c-1.022,0 -1.484,1.092 -1.484,1.092l0,4.452l-1.176,-0l0,-6.467l1.092,-0l0,0.993c0,0 0.574,-1.161 1.806,-1.161c0.532,-0 0.938,0.168 0.938,0.168" style="fill:#fff;fill-rule:nonzero;"/><path id="path220" d="M150.528,21.708l0,-4.157l1.176,-0l0,3.961c0,1.106 0.686,1.582 1.554,1.582c1.092,-0 1.61,-1.064 1.61,-1.064l-0,-4.479l1.176,-0l-0,6.467l-1.093,-0l0,-0.994c0,-0 -0.587,1.162 -1.987,1.162c-1.288,-0 -2.436,-0.882 -2.436,-2.478" style="fill:#fff;fill-rule:nonzero;"/><path id="path222" d="M163.925,22.94c-0,-0 -0.938,1.246 -2.646,1.246c-1.904,-0 -3.331,-1.498 -3.331,-3.402c0,-1.89 1.427,-3.401 3.331,-3.401c1.652,-0 2.576,1.161 2.576,1.161l-0.798,0.714c-0,0 -0.63,-0.784 -1.778,-0.784c-1.302,0 -2.156,1.036 -2.156,2.31c0,1.274 0.854,2.31 2.156,2.31c1.26,-0 1.89,-0.924 1.89,-0.924l0.756,0.77" style="fill:#fff;fill-rule:nonzero;"/><path id="path224" d="M165.073,17.551l1.26,-0l0,-1.974l1.176,-0l-0,1.974l2.015,-0l0,1.063l-2.015,0l-0,3.486c-0,0.63 0.308,0.994 0.938,0.994c0.364,-0 0.741,-0.266 0.741,-0.266l0.434,0.966c-0.559,0.308 -0.966,0.392 -1.343,0.392c-0.924,-0 -1.946,-0.602 -1.946,-2.03l0,-3.542l-1.26,0l0,-1.063" style="fill:#fff;fill-rule:nonzero;"/><path id="path226" d="M171.457,21.708l-0,-4.157l1.176,-0l-0,3.961c-0,1.106 0.686,1.582 1.553,1.582c1.093,-0 1.61,-1.064 1.61,-1.064l0,-4.479l1.176,-0l0,6.467l-1.092,-0l0,-0.994c0,-0 -0.588,1.162 -1.987,1.162c-1.289,-0 -2.436,-0.882 -2.436,-2.478" style="fill:#fff;fill-rule:nonzero;"/><path id="path228" d="M183.16,17.551l-0.434,1.063c0,0 -0.252,-0.14 -0.742,-0.14c-1.022,0 -1.484,1.092 -1.484,1.092l0,4.452l-1.175,-0l-0,-6.467l1.091,-0l0,0.993c0,0 0.574,-1.161 1.806,-1.161c0.532,-0 0.938,0.168 0.938,0.168" style="fill:#fff;fill-rule:nonzero;"/><path id="path230" d="M189.208,20.224c-0.042,-0.728 -0.7,-1.75 -2.002,-1.75c-1.4,0 -1.973,1.078 -2.058,1.75l4.06,0Zm1.148,0.602c-0,0.126 -0,0.224 -0.015,0.378l-5.22,-0c0.069,0.98 1.007,1.89 2.225,1.89c1.274,-0 1.946,-0.952 1.946,-0.952l0.742,0.77c-0,-0 -0.98,1.274 -2.688,1.274c-1.96,-0 -3.374,-1.484 -3.374,-3.402c0,-1.89 1.288,-3.401 3.234,-3.401c1.806,-0 3.15,1.358 3.15,3.443" style="fill:#fff;fill-rule:nonzero;"/><path id="path232" d="M82.17,32.324c1.231,-1.078 1.357,-1.204 1.357,-1.848c-0,-0.602 -0.532,-1.204 -1.288,-1.204c-0.812,0 -1.287,0.63 -1.287,1.204c-0,0.896 0.574,1.204 1.218,1.848Zm2.603,3.849l-2.701,-2.408l-0.042,0.042c-1.176,0.966 -1.708,1.442 -1.708,2.114c-0,0.98 1.021,1.358 1.945,1.358c0.98,-0 1.96,-0.434 2.506,-1.106Zm2.086,-3.345c-0,2.183 -0.616,3.163 -0.616,3.163l1.708,1.54l-0.714,0.84l-1.68,-1.484c-0.686,0.854 -1.946,1.484 -3.29,1.484c-1.932,0 -3.121,-1.134 -3.121,-2.31c-0,-1.078 0.392,-1.707 2.1,-3.038c-1.12,-1.007 -1.47,-1.679 -1.47,-2.547c-0,-1.064 0.882,-2.24 2.463,-2.24c1.582,0 2.464,1.19 2.464,2.24c0,0.826 -0.28,1.344 -1.75,2.562l2.45,2.211c0,0 0.364,-0.461 0.364,-2.421l1.092,-0" style="fill:#fff;fill-rule:nonzero;"/><path id="path234" d="M96.603,33.192c1.329,-0 2.239,-0.588 2.239,-1.834c0,-1.246 -0.91,-1.834 -2.239,-1.834l-1.288,0l0,3.668l1.288,-0Zm-2.464,-4.788l2.534,0c2.043,0 3.345,1.078 3.345,2.954c0,1.876 -1.302,2.953 -3.345,2.953l-1.358,0l0,3.892l-1.176,-0l-0,-9.799" style="fill:#fff;fill-rule:nonzero;"/><path id="path236" d="M106.038,36.355l-0,-0.91c-0,0 -0.644,-0.462 -1.694,-0.462c-1.007,0 -1.638,0.504 -1.638,1.176c0,0.84 0.756,1.176 1.484,1.176c1.148,0 1.848,-0.98 1.848,-0.98Zm1.176,-2.408l0,4.256l-1.078,-0l0,-0.938c0,0 -0.728,1.106 -2.198,1.106c-1.162,0 -2.407,-0.812 -2.407,-2.212c-0,-1.26 1.105,-2.155 2.561,-2.155c1.19,-0 1.946,0.532 1.946,0.532l-0,-0.351c-0,-1.344 -1.12,-1.525 -1.638,-1.525c-0.979,-0 -1.931,0.546 -1.931,0.546l-0.49,-0.98c-0,-0 1.007,-0.658 2.421,-0.658c1.904,-0 2.814,1.176 2.814,2.379" style="fill:#fff;fill-rule:nonzero;"/><path id="path238" d="M113.402,31.736l-0.434,1.064c0,-0 -0.252,-0.14 -0.742,-0.14c-1.022,-0 -1.484,1.092 -1.484,1.092l0,4.451l-1.175,-0l-0,-6.467l1.091,-0l-0,0.994c-0,-0 0.574,-1.162 1.806,-1.162c0.532,-0 0.938,0.168 0.938,0.168" style="fill:#fff;fill-rule:nonzero;"/><path id="path240" d="M118.917,36.355l0,-0.91c0,0 -0.643,-0.462 -1.693,-0.462c-1.008,0 -1.638,0.504 -1.638,1.176c0,0.84 0.756,1.176 1.484,1.176c1.148,0 1.847,-0.98 1.847,-0.98Zm1.176,-2.408l0,4.256l-1.077,-0l-0,-0.938c-0,0 -0.728,1.106 -2.198,1.106c-1.162,0 -2.408,-0.812 -2.408,-2.212c-0,-1.26 1.106,-2.155 2.562,-2.155c1.19,-0 1.945,0.532 1.945,0.532l0,-0.351c0,-1.344 -1.119,-1.525 -1.637,-1.525c-0.98,-0 -1.932,0.546 -1.932,0.546l-0.49,-0.98c0,-0 1.008,-0.658 2.422,-0.658c1.904,-0 2.813,1.176 2.813,2.379" style="fill:#fff;fill-rule:nonzero;"/><path id="path242" d="M131.517,34.045l-0,4.158l-1.176,-0l-0,-3.975c-0,-1.05 -0.546,-1.568 -1.386,-1.568c-0.966,-0 -1.386,1.035 -1.386,1.035l0,4.508l-1.176,-0l0,-3.975c0,-1.05 -0.546,-1.568 -1.386,-1.568c-0.951,-0 -1.385,1.035 -1.385,1.035l-0,4.508l-1.176,-0l0,-6.467l1.091,-0l0,0.952c0,-0 0.477,-1.12 1.792,-1.12c1.61,-0 2.016,1.203 2.016,1.203c0,0 0.518,-1.203 1.932,-1.203c1.344,-0 2.24,0.882 2.24,2.477" style="fill:#fff;fill-rule:nonzero;"/><path id="path244" d="M138.657,34.409c-0.043,-0.727 -0.7,-1.749 -2.002,-1.749c-1.4,-0 -1.974,1.077 -2.058,1.749l4.06,0Zm1.147,0.602c0,0.126 0,0.224 -0.014,0.378l-5.221,0c0.07,0.98 1.008,1.89 2.226,1.89c1.273,-0 1.945,-0.952 1.945,-0.952l0.743,0.77c-0,0 -0.98,1.274 -2.688,1.274c-1.96,0 -3.374,-1.484 -3.374,-3.402c0,-1.889 1.288,-3.401 3.234,-3.401c1.805,-0 3.149,1.358 3.149,3.443" style="fill:#fff;fill-rule:nonzero;"/><path id="path246" d="M141.149,31.736l1.26,-0l-0,-1.974l1.175,-0l0,1.974l2.016,-0l0,1.064l-2.016,-0l0,3.485c0,0.63 0.309,0.994 0.939,0.994c0.363,-0 0.741,-0.266 0.741,-0.266l0.434,0.966c-0.56,0.308 -0.966,0.392 -1.344,0.392c-0.923,0 -1.945,-0.602 -1.945,-2.03l-0,-3.541l-1.26,-0l-0,-1.064" style="fill:#fff;fill-rule:nonzero;"/><path id="path248" d="M152.32,34.409c-0.042,-0.727 -0.7,-1.749 -2.002,-1.749c-1.4,-0 -1.973,1.077 -2.058,1.749l4.06,0Zm1.148,0.602c0,0.126 0,0.224 -0.015,0.378l-5.22,0c0.069,0.98 1.007,1.89 2.225,1.89c1.274,-0 1.946,-0.952 1.946,-0.952l0.742,0.77c-0,0 -0.98,1.274 -2.688,1.274c-1.96,0 -3.374,-1.484 -3.374,-3.402c0,-1.889 1.288,-3.401 3.234,-3.401c1.806,-0 3.15,1.358 3.15,3.443" style="fill:#fff;fill-rule:nonzero;"/><path id="path250" d="M159.207,31.736l-0.433,1.064c-0,-0 -0.252,-0.14 -0.743,-0.14c-1.021,-0 -1.483,1.092 -1.483,1.092l-0,4.451l-1.176,-0l-0,-6.467l1.092,-0l-0,0.994c-0,-0 0.573,-1.162 1.806,-1.162c0.532,-0 0.937,0.168 0.937,0.168" style="fill:#fff;fill-rule:nonzero;"/><path id="path252" d="M160.902,31.736l1.176,-0l-0,6.467l-1.176,-0l-0,-6.467Zm0.588,-2.87c0.433,0 0.798,0.364 0.798,0.798c-0,0.434 -0.365,0.798 -0.798,0.798c-0.434,-0 -0.798,-0.364 -0.798,-0.798c-0,-0.434 0.364,-0.798 0.798,-0.798" style="fill:#fff;fill-rule:nonzero;"/><path id="path254" d="M170.001,31.736l-3.71,5.375l3.556,0l-0,1.092l-5.628,-0l3.71,-5.375l-3.513,-0l-0,-1.092l5.585,-0" style="fill:#fff;fill-rule:nonzero;"/><path id="path256" d="M175.979,36.355l-0,-0.91c-0,0 -0.644,-0.462 -1.694,-0.462c-1.008,0 -1.638,0.504 -1.638,1.176c-0,0.84 0.756,1.176 1.484,1.176c1.148,0 1.848,-0.98 1.848,-0.98Zm1.175,-2.408l0,4.256l-1.078,-0l0,-0.938c0,0 -0.727,1.106 -2.197,1.106c-1.162,0 -2.408,-0.812 -2.408,-2.212c-0,-1.26 1.106,-2.155 2.562,-2.155c1.19,-0 1.946,0.532 1.946,0.532l-0,-0.351c-0,-1.344 -1.12,-1.525 -1.638,-1.525c-0.98,-0 -1.932,0.546 -1.932,0.546l-0.49,-0.98c0,-0 1.008,-0.658 2.422,-0.658c1.903,-0 2.813,1.176 2.813,2.379" style="fill:#fff;fill-rule:nonzero;"/><path id="path258" d="M178.947,31.736l1.26,-0l-0,-1.974l1.175,-0l0,1.974l2.016,-0l0,1.064l-2.016,-0l0,3.485c0,0.63 0.308,0.994 0.938,0.994c0.364,-0 0.742,-0.266 0.742,-0.266l0.434,0.966c-0.56,0.308 -0.966,0.392 -1.344,0.392c-0.924,0 -1.945,-0.602 -1.945,-2.03l-0,-3.541l-1.26,-0l-0,-1.064" style="fill:#fff;fill-rule:nonzero;"/><path id="path260" d="M185.54,31.736l1.176,-0l-0,6.467l-1.176,-0l0,-6.467Zm0.588,-2.87c0.434,0 0.798,0.364 0.798,0.798c0,0.434 -0.364,0.798 -0.798,0.798c-0.434,-0 -0.798,-0.364 -0.798,-0.798c0,-0.434 0.364,-0.798 0.798,-0.798" style="fill:#fff;fill-rule:nonzero;"/><path id="path262" d="M194.317,34.969c0,-1.274 -0.853,-2.309 -2.156,-2.309c-1.301,-0 -2.155,1.035 -2.155,2.309c-0,1.274 0.854,2.31 2.155,2.31c1.303,-0 2.156,-1.036 2.156,-2.31Zm1.176,0c-0,1.904 -1.428,3.402 -3.332,3.402c-1.903,0 -3.331,-1.498 -3.331,-3.402c0,-1.903 1.428,-3.401 3.331,-3.401c1.904,-0 3.332,1.498 3.332,3.401" style="fill:#fff;fill-rule:nonzero;"/><path id="path264" d="M202.913,34.045l-0,4.158l-1.176,-0l0,-3.962c0,-1.105 -0.686,-1.581 -1.553,-1.581c-1.051,-0 -1.61,1.092 -1.61,1.092l-0,4.451l-1.176,-0l-0,-6.467l1.092,-0l-0,0.91c-0,-0 0.588,-1.078 1.987,-1.078c1.288,-0 2.436,0.882 2.436,2.477" style="fill:#fff;fill-rule:nonzero;"/></g></g></svg>